<?xml version="1.0" standalone="no"?>
<!DOCTYPE svg PUBLIC "-//W3C//DTD SVG 20010904//EN"
 "http://www.w3.org/TR/2001/REC-SVG-20010904/DTD/svg10.dtd">
<svg version="1.0" xmlns="http://www.w3.org/2000/svg"
 width="1308.000000pt" height="1308.000000pt" viewBox="0 0 1308.000000 1308.000000"
 preserveAspectRatio="xMidYMid meet">
<metadata>
Created by potrace 1.14, written by Peter Selinger 2001-2017
</metadata>
<g transform="translate(0.000000,1308.000000) scale(0.100000,-0.100000)"
fill="#000000" stroke="none">
<path d="M410 9056 l0 -963 -52 -6 c-136 -14 -259 -100 -320 -225 l-33 -67 -3
-2362 -2 -2363 205 0 205 0 0 2509 0 2509 61 11 c131 23 248 107 305 218 l29
58 3 823 2 822 -200 0 -200 0 0 -964z"/>
<path d="M1230 9054 l0 -966 33 7 c99 19 132 31 185 65 68 43 112 94 150 170
l27 55 3 818 3 817 -201 0 -200 0 0 -966z"/>
<path d="M2050 9055 l0 -966 38 6 c124 21 219 74 284 160 77 102 73 44 76 953
l3 812 -201 0 -200 0 0 -965z"/>
<path d="M5180 10013 c-243 -23 -424 -58 -605 -118 -878 -288 -1489 -1029
-1574 -1909 -87 -887 418 -1749 1264 -2161 309 -150 582 -222 935 -244 155
-10 223 -31 288 -86 126 -109 127 -306 1 -419 -97 -88 17 -81 -1386 -84
l-1243 -2 0 -190 0 -190 1283 2 1282 3 70 23 c130 44 203 90 300 187 102 101
152 187 181 310 24 103 15 266 -20 361 -14 39 -26 74 -26 78 0 3 94 6 210 6
243 0 220 12 246 -126 12 -67 15 -120 11 -214 -12 -263 -103 -473 -290 -667
-162 -168 -346 -271 -582 -326 -89 -21 -111 -21 -1377 -24 l-1288 -4 0 -190 0
-189 1323 3 1322 3 100 22 c316 72 574 211 785 423 204 206 328 432 392 720
19 86 23 133 22 269 0 91 -5 191 -12 224 -6 32 -9 62 -6 67 7 12 401 12 409 0
3 -6 11 -71 17 -145 26 -301 -32 -612 -167 -893 -263 -550 -783 -935 -1425
-1054 l-125 -24 -1317 -3 -1318 -3 0 -195 0 -195 1308 4 c1426 4 1376 2 1652
63 597 133 1112 485 1453 992 114 169 232 435 286 647 53 203 76 454 61 665
l-10 134 -37 37 c-207 202 -292 274 -358 305 -38 18 -99 38 -135 44 -41 6
-402 10 -980 10 -579 0 -947 4 -1000 11 -378 46 -735 196 -1020 426 -41 34
-122 110 -180 170 -526 546 -650 1341 -315 2015 180 363 472 650 850 838 255
127 478 189 755 210 81 6 589 10 1273 10 l1137 0 0 190 0 190 -1192 -2 c-656
0 -1209 -3 -1228 -5z"/>
<path d="M10490 10013 c-869 -60 -1618 -547 -1981 -1288 -163 -333 -242 -731
-211 -1072 l11 -131 68 -64 c280 -266 295 -277 412 -312 49 -14 157 -16 962
-16 925 0 1022 -3 1219 -40 787 -147 1402 -756 1530 -1515 30 -176 25 -473
-10 -635 -153 -714 -710 -1266 -1453 -1440 -207 -49 -242 -50 -1519 -50
l-1198 0 0 -190 0 -190 1213 0 c746 0 1247 4 1302 10 401 45 773 178 1087 387
768 512 1137 1375 962 2243 -146 724 -675 1340 -1400 1628 -236 95 -451 142
-753 166 -184 15 -228 28 -294 86 -61 53 -89 111 -95 194 -4 59 0 81 18 124
29 67 100 133 173 161 l58 21 1234 0 1235 0 0 195 0 195 -1213 0 c-760 0
-1243 -4 -1293 -10 -303 -38 -534 -237 -606 -522 -27 -110 -22 -239 16 -351
14 -42 26 -80 26 -82 0 -3 -96 -5 -214 -5 l-214 0 -10 43 c-87 351 17 715 279
976 123 124 270 215 437 271 184 62 142 60 1528 60 l1264 0 0 195 0 195 -1237
0 c-740 0 -1276 -4 -1333 -10 -208 -22 -368 -68 -555 -159 -157 -77 -277 -163
-400 -286 -338 -339 -479 -779 -399 -1247 l7 -38 -211 0 -210 0 -9 78 c-14
130 -8 367 11 487 130 798 794 1419 1648 1540 86 12 315 15 1396 15 l1292 0 0
195 0 195 -1262 -2 c-695 -1 -1283 -3 -1308 -5z"/>
<path d="M5225 9240 c-701 -51 -1272 -544 -1391 -1201 -21 -114 -23 -343 -5
-449 55 -319 192 -574 433 -805 207 -199 454 -328 757 -397 94 -21 116 -22
921 -25 l825 -4 -25 24 c-64 62 -347 280 -392 303 -98 50 -145 54 -649 54
-505 0 -563 5 -724 56 -292 94 -539 309 -665 577 -132 281 -128 589 10 872
144 298 419 512 756 590 131 30 307 35 1417 35 l1117 0 -2 188 -3 187 -1140 1
c-627 1 -1185 -2 -1240 -6z"/>
<path d="M5151 8449 c-158 -41 -309 -141 -394 -261 -60 -85 -83 -132 -108
-224 -28 -102 -23 -265 10 -364 64 -188 210 -339 401 -417 122 -49 172 -53
545 -51 l346 3 -147 138 c-80 76 -165 150 -188 164 -67 43 -144 64 -258 73
-86 6 -119 13 -162 34 -216 106 -218 400 -2 514 l51 27 1180 5 1180 5 3 188 2
187 -1192 -1 c-1148 0 -1196 -1 -1267 -20z"/>
<path d="M1105 8076 c-112 -35 -207 -116 -253 -214 l-27 -57 -3 -2367 -2
-2368 200 0 200 0 0 2510 0 2510 -37 -1 c-21 0 -56 -6 -78 -13z"/>
<path d="M1915 8072 c-156 -54 -253 -166 -275 -319 -6 -43 -10 -921 -10 -2375
l0 -2308 205 0 205 0 0 2510 0 2510 -37 0 c-21 -1 -61 -8 -88 -18z"/>
<path d="M9156 6721 c52 -47 379 -303 404 -316 97 -50 83 -49 645 -56 569 -7
589 -9 755 -64 620 -207 923 -890 643 -1450 -79 -157 -218 -317 -361 -414
-138 -93 -331 -167 -496 -190 -52 -7 -471 -11 -1252 -11 l-1174 0 0 -190 0
-190 1189 0 c761 0 1218 4 1268 10 597 79 1085 464 1262 997 54 161 66 241 66
438 0 255 -32 393 -145 620 -75 150 -159 262 -292 391 -255 245 -566 386 -937
423 -125 13 -1589 15 -1575 2z"/>
<path d="M10105 5825 c213 -206 256 -231 435 -246 128 -11 163 -20 222 -58 79
-50 128 -140 128 -236 0 -112 -63 -211 -168 -262 l-57 -28 -1172 -3 -1173 -2
0 -190 0 -190 1164 0 c1258 0 1242 -1 1376 53 136 55 254 151 329 266 51 80
79 154 98 260 56 323 -169 648 -514 743 -72 19 -108 22 -443 25 l-365 3 140
-135z"/>
</g>
</svg>
