<svg width="386" height="210" viewBox="0 0 386 210" fill="none" xmlns="http://www.w3.org/2000/svg">
    <path d="M384.001 0V11.6431H312.929C299.734 11.6431 287.588 16.0092 277.917 23.2862C274.169 26.1242 270.72 29.3988 267.796 33.11C260.524 42.1333 256.1 53.4127 255.801 65.7106C255.801 66.2199 255.801 66.6568 255.801 67.1661C255.801 67.6753 255.801 68.1119 255.801 68.6215C255.876 71.0228 256.1 73.4241 256.475 75.7526H244.33C243.955 72.9148 243.73 70.077 243.73 67.1661C243.73 53.1215 248.154 40.0959 255.726 29.3988C257.225 27.2885 258.799 25.3237 260.524 23.3589C262.773 20.812 265.172 18.4834 267.721 16.3731C269.671 14.6994 271.769 13.1712 273.944 11.7159C285.039 4.36614 298.459 0.0727682 312.854 0.0727682H384.001V0Z"
          fill="#E0E0E0"/>
    <path d="M384.003 23.2863V34.9293H312.855C304.908 34.9293 297.561 37.6946 291.863 42.2791C290.214 43.5888 288.714 45.0442 287.44 46.5724C282.717 52.1031 279.867 59.2342 279.867 66.9476C279.867 70.0039 280.317 72.9149 281.142 75.68H268.772C268.172 72.8422 267.872 69.9313 267.872 66.9476C267.872 55.4501 272.445 45.0442 279.867 37.258C280.617 36.4575 281.442 35.657 282.267 34.9293C290.289 27.7252 301.009 23.2863 312.855 23.2863H384.003Z"
          fill="#E0E0E0"/>
    <path d="M384.004 46.5724V58.2153H312.856C307.908 58.2153 303.86 62.1447 303.86 66.9476C303.86 69.3489 304.834 71.5321 306.484 73.1329C308.133 74.7338 310.382 75.68 312.856 75.68H293.889C292.614 73.0603 291.864 70.0766 291.864 66.9476C291.864 55.6682 301.236 46.5724 312.856 46.5724H384.004Z"
          fill="#E0E0E0"/>
    <path d="M176.183 142.919C176.183 154.198 166.812 163.294 155.191 163.294H83.9688V151.652H155.191C160.139 151.652 164.188 147.722 164.188 142.919C164.188 140.518 163.213 138.335 161.564 136.734C159.915 135.133 157.665 134.187 155.191 134.187H174.159C175.434 136.807 176.183 139.79 176.183 142.919Z"
          fill="#E0E0E0"/>
    <path d="M200.174 142.919C200.174 154.417 195.601 164.823 188.179 172.609C187.429 173.41 186.604 174.21 185.78 174.938C177.757 182.142 167.037 186.581 155.191 186.581H83.9688V174.938H155.191C163.138 174.938 170.485 172.172 176.183 167.588C177.833 166.278 179.332 164.823 180.607 163.294C185.33 157.764 188.179 150.633 188.179 142.919C188.179 139.863 187.729 136.952 186.904 134.187H199.274C199.874 137.025 200.174 139.936 200.174 142.919Z"
          fill="#E0E0E0"/>
    <path d="M224.165 142.773C224.165 156.818 219.741 169.771 212.169 180.541C210.67 182.651 209.096 184.616 207.371 186.581C205.122 189.055 202.723 191.456 200.174 193.566C198.225 195.24 196.126 196.768 193.952 198.223C182.856 205.573 169.436 209.867 155.042 209.867H83.9688V198.223H155.042C168.236 198.223 180.381 193.857 190.053 186.581C193.801 183.742 197.25 180.468 200.174 176.757C207.446 167.733 211.869 156.454 212.169 144.156C212.169 143.646 212.169 143.21 212.169 142.701C212.169 142.191 212.169 141.754 212.169 141.245C212.095 138.844 211.869 136.442 211.494 134.114H223.64C224.015 137.025 224.165 139.862 224.165 142.773Z"
          fill="#E0E0E0"/>
    <path d="M11.9954 58.1426V209.794H0V69.7859C0 63.3821 5.39795 58.1426 11.9954 58.1426Z" fill="#E0E0E0"/>
    <path d="M35.9866 58.1426V209.794H23.9912V69.7859C23.9912 63.3821 29.3891 58.1426 35.9866 58.1426Z" fill="#E0E0E0"/>
    <path d="M60.052 58.1426V209.794H48.0566V69.7859C48.0566 63.3821 53.3798 58.1426 60.052 58.1426Z" fill="#E0E0E0"/>
    <path d="M332.123 142.919C332.123 154.198 322.752 163.294 311.132 163.294H244.407V151.651H311.132C316.08 151.651 320.128 147.722 320.128 142.919C320.128 140.517 319.153 138.334 317.504 136.733C315.855 135.133 313.605 134.187 311.132 134.187H310.307C306.708 134.187 303.259 132.804 300.786 130.33L292.764 122.543H311.132C322.677 122.543 332.123 131.64 332.123 142.919Z"
          fill="#E0E0E0"/>
    <path d="M356.114 142.919C356.114 167.006 335.947 186.581 311.132 186.581H244.407V174.937H311.132C329.35 174.937 344.119 160.602 344.119 142.919C344.119 134.041 340.445 126.036 334.448 120.288C328.45 114.466 320.203 110.9 311.132 110.9H287.74C284.517 110.9 281.443 109.809 278.969 107.771L268.698 99.2573H311.056C335.947 99.2573 356.114 118.832 356.114 142.919Z"
          fill="#E0E0E0"/>
    <path d="M380.105 142.773C380.105 179.813 349.142 209.866 310.982 209.866H244.407V198.223H310.982C342.544 198.223 368.11 173.409 368.11 142.773C368.11 127.492 361.737 113.593 351.391 103.551C341.045 93.5085 326.801 87.3232 310.982 87.3232H262.026C258.427 87.3232 254.978 85.9405 252.504 83.4661L244.482 75.6799H311.056C349.142 75.6799 380.105 105.734 380.105 142.773Z"
          fill="#E0E0E0"/>
    <path d="M223.639 46.5724V58.2153H156.915C151.966 58.2153 147.918 62.1447 147.918 66.9476C147.918 69.3489 148.968 71.5321 150.542 73.1329C152.192 74.7338 154.441 75.68 156.915 75.68H157.74C161.338 75.68 164.712 77.0624 167.261 79.5367L175.282 87.3229H156.915C145.294 87.3229 135.923 78.2267 135.923 66.9476C135.923 55.6682 145.294 46.5724 156.915 46.5724H223.639Z"
          fill="#E0E0E0"/>
    <path d="M223.639 23.2863V34.9293H156.915C138.697 34.9293 123.928 49.2648 123.928 66.9476C123.928 75.8258 127.601 83.8304 133.599 89.5792C139.596 95.4006 147.843 98.9662 156.915 98.9662H180.306C183.53 98.9662 186.603 100.058 189.078 102.096L199.348 110.609H156.99C132.174 110.609 112.007 91.0346 112.007 66.9476C112.007 42.861 132.174 23.2863 156.99 23.2863H223.639Z"
          fill="#E0E0E0"/>
    <path d="M99.9376 67.0934C99.9376 82.3749 106.31 96.2737 116.656 106.316C127.002 116.358 141.247 122.543 157.066 122.543H206.022C209.621 122.543 213.069 123.926 215.543 126.4L223.565 134.186H156.991C118.83 134.186 87.8672 104.133 87.8672 67.0934C87.8672 30.0537 118.83 0 156.991 0H223.565V11.6431H156.991C125.503 11.6431 99.9376 36.4574 99.9376 67.0934Z"
          fill="#E0E0E0"/>
    <path d="M23.9915 0V46.5723C23.9915 52.9761 18.5936 58.2152 11.9961 58.2152V0H23.9915Z" fill="#E0E0E0"/>
    <path d="M47.9828 0V46.5723C47.9828 52.9761 42.585 58.2152 35.9873 58.2152V0H47.9828Z" fill="#E0E0E0"/>
    <path d="M72.0481 0V46.5723C72.0481 52.9761 66.6503 58.2152 60.0527 58.2152V0H72.0481Z" fill="#E0E0E0"/>
</svg>
